<svg width="187" height="109" viewBox="0 0 187 109" fill="none" xmlns="http://www.w3.org/2000/svg">
<path d="M119.319 5.41966C115.721 1.82101 111.212 0 105.835 0C102.844 0 100.025 0.65037 97.3372 1.90773C94.6491 3.16509 92.3078 4.94274 90.3567 7.24067C88.4056 4.94274 86.1077 3.16509 83.3762 1.90773C80.688 0.65037 77.8264 0 74.8781 0C69.5018 0 64.9927 1.82101 61.394 5.41966C57.7954 9.01832 55.9744 13.5275 55.9744 18.9038C55.9744 21.5486 56.4079 24.1067 57.3184 26.6214C58.2289 29.1361 59.7898 31.911 62.001 34.9026C64.2122 37.8943 67.2472 41.3195 71.0193 45.0916C74.7914 48.8637 79.6041 53.3728 85.3706 58.5757L90.3567 63.0415L95.3428 58.5757C101.153 53.3728 105.922 48.8637 109.694 45.0916C113.466 41.3195 116.501 37.8943 118.712 34.9026C120.967 31.911 122.528 29.1361 123.395 26.6214C124.262 24.1067 124.739 21.5052 124.739 18.9038C124.739 13.5275 122.918 9.01832 119.319 5.41966ZM80.5146 14.438C82.0754 14.7848 83.6363 15.2618 85.1538 15.8254C86.6713 16.3891 88.1455 17.0394 89.5763 17.7765C91.0071 18.5136 92.3078 19.3374 93.4351 20.2045C92.828 22.1122 92.4812 23.9332 92.3511 25.7109C92.221 27.4885 92.3078 29.0928 92.6113 30.4802C91.2238 30.1767 89.6196 30.1333 87.8853 30.2634C86.1077 30.3935 84.2867 30.7403 82.3356 31.3473C81.4684 30.1767 80.6446 28.9193 79.9076 27.4885C79.1705 26.0577 78.5201 24.5836 77.9565 23.0661C77.3928 21.5486 76.9159 19.9877 76.5691 18.3835C76.2222 16.8226 76.0054 15.2618 75.9187 13.7876C77.3929 13.8743 78.9537 14.0911 80.5146 14.438ZM96.9904 46.9993C94.3456 47.9098 91.7008 48.3 89.056 48.1266C86.4112 47.9532 83.8531 47.3028 81.3817 46.0888C78.867 44.8748 76.5257 43.1839 74.2711 40.9293C77.1761 38.5446 79.9076 36.8103 82.4223 35.6397C84.937 34.5124 87.4084 33.9921 89.8364 34.1656C92.2644 34.2956 94.6924 35.0761 97.0771 36.4635C99.5051 37.8509 102.063 39.9321 104.751 42.6202C102.237 44.6147 99.6351 46.0888 96.9904 46.9993ZM107.093 39.195C105.358 37.5474 103.667 36.1166 102.02 34.9026C100.372 33.6886 98.7246 32.6481 96.9904 31.7809C96.1666 28.7025 96.1232 25.5374 96.9036 22.329C97.6841 19.1206 99.7219 15.6953 103.06 12.14C106.876 15.9121 109.13 20.2045 109.867 25.0172C110.561 29.8298 109.651 34.5558 107.093 39.195Z" fill="white"/>
<path d="M8.19454 98.898V108.523H0V79.604H3.2518C4.03223 79.604 5.20288 79.5607 6.76374 79.5173C8.3246 79.4306 9.62532 79.3872 10.6225 79.3872C14.1778 79.3872 16.8226 80.1676 18.5569 81.7285C20.3346 83.2894 21.2017 85.674 21.2017 88.9258C21.2017 90.8335 20.7681 92.5245 19.9444 93.9986C19.1206 95.4728 18.0366 96.6434 16.6492 97.5106C17.3863 97.684 18.0366 98.1176 18.5569 98.7679C19.1206 99.4183 19.5108 100.199 19.8143 101.109C20.1178 101.976 20.3779 102.887 20.5947 103.841C20.8115 104.751 21.0716 105.662 21.3751 106.529C21.6786 107.396 21.9821 108.09 22.329 108.523H13.224C13.0505 108.307 12.9205 107.656 12.7904 106.616C12.7037 105.532 12.5736 104.274 12.3568 102.8C12.1834 101.283 11.9666 100.069 11.6631 99.0714C11.6198 99.0714 11.5764 99.0714 11.533 99.0714C11.2295 99.0714 10.8827 99.0714 10.5358 99.0714C10.189 99.0714 9.88547 99.0281 9.62532 99.0281C9.36518 99.0281 9.06168 98.9847 8.80154 98.9847C8.54139 98.898 8.32461 98.898 8.19454 98.898ZM8.19454 94.3021H8.97497C9.36518 94.3021 9.71204 94.3021 10.0155 94.2588C10.2757 94.2154 10.5792 94.172 10.926 94.0853C11.2729 93.9986 11.533 93.8252 11.7498 93.6518C11.9666 93.435 12.1834 93.2182 12.4002 92.8713C12.617 92.5245 12.747 92.1776 12.8338 91.6573C12.9205 91.1804 12.9638 90.5734 12.9638 89.923V87.972C12.9638 86.5412 12.5736 85.5439 11.8365 84.9803C11.0995 84.4167 10.0155 84.1132 8.62811 84.1132H8.15118V94.3021H8.19454ZM35.2495 95.7329C35.2495 93.6518 35.1628 92.1776 34.946 91.3105C34.7292 90.4433 34.339 90.0098 33.7753 90.0098C33.2984 90.0098 32.8648 90.0965 32.5613 90.2699C32.2578 90.4433 31.9977 90.7035 31.8676 91.0937C31.7375 91.4405 31.6075 91.8308 31.5641 92.221C31.5207 92.6112 31.5208 93.0881 31.5208 93.6951V95.7763H35.2495V95.7329ZM33.2984 109C31.4774 109 29.8732 108.74 28.4857 108.176C27.1417 107.613 26.0577 106.832 25.2773 105.835C24.4969 104.838 23.9332 103.711 23.5864 102.453C23.2395 101.196 23.0227 99.7651 23.0227 98.2476C23.0227 94.5623 23.9766 91.7874 25.841 89.8797C27.7053 87.972 30.3501 87.0615 33.6886 87.0615C36.9404 87.0615 39.2384 87.8419 40.6258 89.3594C42.0132 90.8769 42.7069 93.3049 42.7069 96.6868V99.4183H31.434V99.8952C31.434 100.849 31.5208 101.673 31.7375 102.28C31.9543 102.887 32.2578 103.364 32.648 103.667C33.0382 103.971 33.4285 104.144 33.8621 104.274C34.2523 104.361 34.7726 104.404 35.3796 104.404C35.9432 104.404 36.5502 104.318 37.2439 104.188C37.9376 104.058 38.588 103.797 39.2817 103.494C39.9754 103.19 40.5391 102.8 41.016 102.367L42.4901 104.838C41.8831 105.835 40.9726 106.659 39.802 107.309C38.6313 107.96 37.5041 108.393 36.4201 108.653C35.3362 108.914 34.2956 109 33.2984 109ZM56.7981 108.48H49.2972L43.0104 87.5384H51.8987L54.8903 100.892L57.1449 91.7007L55.9743 87.495H64.5156L67.0304 100.849L70.3689 87.495H75.6585L69.3283 108.437H61.8275L59.3995 99.8085L56.7981 108.48ZM77.0026 108.48V92.5245L75.5284 91.614V88.9692L80.818 87.495H84.9369V108.437H77.0026V108.48ZM80.6012 85.2838L76.569 81.2082V80.3411L80.6012 76.3088H81.5551L85.7607 80.3411V81.2082L81.5551 85.2838H80.6012ZM96.2966 108.48H88.3188V92.5245L86.8447 91.614V88.9692L92.1342 87.495H96.3399V90.6601L96.6434 90.2699C96.8602 90.0098 97.1203 89.7062 97.5106 89.316C97.9008 88.9692 98.3344 88.6223 98.8113 88.2755C99.2882 87.9286 99.8518 87.6251 100.502 87.365C101.196 87.1048 101.846 86.9747 102.453 86.9747C104.708 86.9747 106.312 87.5818 107.223 88.8391C108.176 90.0531 108.61 92.1343 108.61 95.0392C108.61 95.1259 108.61 95.2993 108.61 95.4728C108.61 95.6896 108.567 95.8196 108.567 95.9497V108.437H100.416V95.2126C100.459 93.6518 99.8085 92.9147 98.4644 92.9147C98.3777 92.9147 98.2476 92.9147 98.1609 92.9581C98.0742 92.9581 97.9875 93.0014 97.9008 93.0014C97.814 93.0014 97.7707 93.0448 97.6406 93.0881C97.5539 93.1315 97.4672 93.1748 97.4238 93.1748C97.3371 93.1748 97.2938 93.2182 97.2071 93.3049C97.1203 93.3483 97.077 93.3916 96.9903 93.435C96.9469 93.4783 96.8602 93.5217 96.7735 93.6084C96.6868 93.6951 96.6434 93.7385 96.5567 93.7385C96.5133 93.7818 96.47 93.8252 96.3399 93.9119C96.2532 93.9986 96.2098 94.042 96.1665 94.042V108.48H96.2966ZM125.519 108.48L124.565 105.315C124.435 105.532 124.262 105.792 124.089 106.009C123.915 106.225 123.655 106.529 123.265 106.876C122.875 107.223 122.484 107.526 122.051 107.786C121.617 108.046 121.097 108.263 120.447 108.48C119.796 108.697 119.146 108.783 118.409 108.783C115.677 108.783 113.726 107.873 112.425 106.009C111.168 104.144 110.518 101.586 110.518 98.2476C110.518 96.1665 110.821 94.3455 111.385 92.7413C111.992 91.0937 112.902 89.793 114.16 88.8391C115.417 87.8419 116.935 87.365 118.756 87.365C119.84 87.365 120.793 87.495 121.617 87.7118C122.441 87.9286 123.178 88.2321 123.785 88.5356V81.0781L121.054 80.1677V77.4361L129.768 76.2221H131.676V108.523H125.519V108.48ZM122.051 103.971C122.354 103.971 122.658 103.927 122.961 103.841C123.265 103.711 123.568 103.581 123.872 103.364V90.9203C123.352 90.7902 122.875 90.7468 122.484 90.7468C120.316 90.7468 119.189 92.4378 119.189 95.8196V99.2882C119.189 100.849 119.449 102.02 120.013 102.8C120.533 103.581 121.227 103.971 122.051 103.971ZM141.171 108.48H133.757L136.055 79.5606H147.632L149.799 89.2727L150.797 94.1721L151.751 89.2727L153.658 79.5606H163.977L166.102 108.48H158.428L157.17 91.4839L156.867 85.2404L153.095 105.618H146.678L142.125 85.2404L141.995 91.4839L141.171 108.48ZM179.543 95.7329C179.543 93.6518 179.456 92.1776 179.239 91.3105C179.022 90.4433 178.632 90.0098 178.068 90.0098C177.591 90.0098 177.158 90.0965 176.854 90.2699C176.551 90.4433 176.291 90.7035 176.161 91.0937C176.031 91.4405 175.901 91.8308 175.857 92.221C175.814 92.6112 175.814 93.0881 175.814 93.6951V95.7763H179.543V95.7329ZM177.548 109C175.727 109 174.123 108.74 172.735 108.176C171.391 107.613 170.307 106.832 169.527 105.835C168.747 104.838 168.183 103.711 167.836 102.453C167.489 101.196 167.316 99.7651 167.316 98.2476C167.316 94.5623 168.27 91.7874 170.134 89.8797C171.998 87.972 174.643 87.0615 177.982 87.0615C181.233 87.0615 183.531 87.8419 184.919 89.3594C186.306 90.8769 187 93.3049 187 96.6868V99.4183H175.727V99.8952C175.727 100.849 175.814 101.673 176.031 102.28C176.247 102.887 176.551 103.364 176.941 103.667C177.331 103.971 177.722 104.144 178.155 104.274C178.545 104.361 179.066 104.404 179.673 104.404C180.236 104.404 180.887 104.318 181.537 104.188C182.231 104.058 182.881 103.797 183.575 103.494C184.268 103.19 184.832 102.8 185.309 102.367L186.783 104.838C186.176 105.835 185.266 106.659 184.095 107.309C182.924 107.96 181.797 108.393 180.713 108.653C179.586 108.914 178.545 109 177.548 109Z" fill="white"/>
</svg>
